<svg xmlns="http://www.w3.org/2000/svg" version="1.1" width="1000" height="1000" viewBox="0 0 26.3 26.3"><style>
    #light-icon {
      display: inline;
    }
    #dark-icon {
      display: none;
    }

    @media (prefers-color-scheme: dark) {
      #light-icon {
        display: none;
      }
      #dark-icon {
        display: inline;
      }
    }
  </style><g id="light-icon"><path d="M82.65,270.8A13.15,13.15,0,1,0,95.8,283.95,13.151,13.151,0,0,0,82.65,270.8Zm0,24.295a11.107,11.107,0,1,1,11.107-11.107A11.114,11.114,0,0,1,82.65,295.095Z" transform="translate(-69.5 -270.8)" fill="#282828"/><path d="M87.239,278.2a10.439,10.439,0,1,0,10.439,10.439A10.448,10.448,0,0,0,87.239,278.2Zm-.409,18.24c-1.746-4.458-3.046-5.684-7.5-7.43h7.541Zm-7.541-8.173c4.458-1.783,5.758-2.972,7.5-7.43v7.43Zm8.358,0v-7.43c1.746,4.458,3.046,5.684,7.5,7.43Z" transform="translate(-74.088 -275.451)" fill="#282828"/></g><g id="dark-icon"><path d="M82.65,270.8A13.15,13.15,0,1,0,95.8,283.95,13.151,13.151,0,0,0,82.65,270.8Zm0,24.295a11.107,11.107,0,1,1,11.107-11.107A11.114,11.114,0,0,1,82.65,295.095Z" transform="translate(-69.5 -270.8)" fill="#7c7c7c"/><path d="M87.239,278.2a10.439,10.439,0,1,0,10.439,10.439A10.448,10.448,0,0,0,87.239,278.2Zm-.409,18.24c-1.746-4.458-3.046-5.684-7.5-7.43h7.541Zm-7.541-8.173c4.458-1.783,5.758-2.972,7.5-7.43v7.43Zm8.358,0v-7.43c1.746,4.458,3.046,5.684,7.5,7.43Z" transform="translate(-74.088 -275.451)" fill="#7c7c7c"/></g></svg>
