<?xml version="1.0" encoding="UTF-8"?><svg id="Layer_1" xmlns="http://www.w3.org/2000/svg" viewBox="0 0 1216.71 963.83"><path d="M770.72,56.19c6.61-11.46,15.56-23.4,21.99-34.71,4.44-7.81,6.83-25.8,19.75-20.53,4.22,1.72,11.65,15.92,14.43,20.57,19.42,32.51,36.55,66.13,54.83,98.67,20.7,36.86,41.48,73.66,61.83,110.67,6.51,11.84,20.68,29.46,20.18,42.79-.44,11.73-7.59,17.42-10.53,27.52-3.23,11.1-2.46,23.4-5.97,35.03-2.07,6.86-8.29,15.88-9.27,21.73-.32,1.93-.66,12.23-.1,13.11.5.79,3.98,1.14,5.2,1.08,19.06-.94,41.74-10.36,60.41-12.67,9.36-1.16,9.33.08,12.28,8.2,2.18,6,11.92,44.73,13.92,46.09,11.71-.41,23.77-1.6,35.63-2.51,1.29-.1,2.27-1.04,2.42-1.05,3.79-.25,16.67-1.2,19.07,1.43l15.19,48.8c.57,1.22,2.64,3.78,3.76,4.24,3.73,1.55,30.31.68,36.52.57,2.08-.04,4.32-1.2,5.94-1.05,3.27.3,5.41,5.72,6.69,8.33,13.64,27.83,23.21,59.11,36.88,87.12,4.45,15.67-17.75,8.01-19.05,15.05l1.02,82.02c-1.17,10.08-12,5.22-15,14l.03,66.92c.71,4.48,13.13,15.12,16.33,20.67,2.7,4.67,3.43,13.9,7.06,15.94,8.3,4.65,26.94-6.38,33,2.99,3.12,4.82.89,7.53-1.46,11.96-4.98-.3-8.9,2.21-13.61,2.89-10.4,1.51-21.03,2.72-31.39,4.11-.57-.18-1.62-1.04-2-1l-3,1c-1.99.09-4.02-.15-6,0-2.08.16-2.84.99-3,1-2.3.2-4.7-.21-7,0-1.88.17-3.79.98-4,1-2.3.2-4.7-.19-7,0-2.07.17-2.84.99-3,1-2.96.23-6.04-.22-9,0-2.07.16-4.49.96-5,1-3.62.27-7.38-.26-11,0-2,.14-3.79.99-4,1-3.3.23-6.7-.23-10,0-2.08.15-4.51.97-5,1-3.29.24-6.71-.24-10,0-1.99.14-3.79.98-4,1-3.95.29-8.05-.29-12,0-2.08.15-4.49.96-5,1-3.95.3-8.05-.3-12,0-1.97.15-3.79.98-4,1-2.96.23-6.04-.23-9,0-1.97.15-3.79.98-4,1-44.67,3.43-89.31,7.04-134,11-221.38,19.6-442.48,40.6-664,59-1.32.11-2.68-.11-4,0-1.92.16-3.51.96-4,1-57.61,4.8-119.11,12.07-176.46,14.04-9.92.34-28.89,1.3-37.98-.11-17.46-2.7-5.38-27.19-3.05-37.92,2.2-10.14,3.31-22.54,5.97-32.03,1.71-6.1,6.59-10.92,8.05-15.95,2.33-8.06-.81-19.32,7.98-24.02l.55-140.4c-6.91-2.28-11.32-2.23-14.56-9.61-3.03-6.9-9.95-34.13-11.05-41.95-1.43-10.19.79-6.96,4.98-13.12,4.23-6.23,7.39-13.74,13.63-18.37,1.35-1,5.61-2.45,5.77-2.73,1.78-2.83-2.54-12.31,3.18-16.32,1.88-1.32,8.2-2.68,10.47-2.58,11.2.49,4.12,13.41,7,18.08.48.78,6.65,3.83,8.52,5.76,4.84,4.98,5.73,11.37,9.16,16.55,2.05,3.09,6.44,5.36,6.82,9.25.27,2.73-1.72,8.42-2.49,11.41-2.23,8.69-6.84,27.06-10.62,34.38-2.71,5.23-6.91,8.04-12.88,7.62-.99,44.44,1.29,89.1.04,133.54-.07,2.59-1.97,7.35-.83,9.26.37.61,3.46,1.39,4.49,2.51,4.58,4.99,2.37,22.26,4.45,23.55,2.74.25,5.6.31,8.35.13,6.29-.41,22.12-2.5,27.93-4.06,9.87-2.66,6.62-6.58,8.02-13.98,5.03-26.48,35.5-37.15,59.55-31.95v-54.5c0-3.95-4.37-4.2-7.52-4.48-19.74-1.76-42.79-.4-61.89-3.11-3.15-.45-6.42-2.15-8-5-3.32-5.95-1.44-28.34-1.55-36.46-.04-2.68-1.22-5.16-1.14-7.97.54-18.07,21.07-13.25,33.1-12.49,15.31.97,30.66,2.43,46,3l2-99h-26.5c-5.02,0-7.94-10.74-3.03-14.03l68.02-54.98c16.4-28.68,25.95-61.31,39.33-91.67,1.82-4.14,5.83-15.12,8.66-17.34,6.01-4.72,11.97.88,18.3,2.73,21.02,6.14,42.89,9.99,64.22,14.85,15.78-32.19,30.75-64.88,47.47-96.59,4.31-8.18,10.8-22.39,15.69-29.31,4.24-5.99,8.53-2.82,14.83-1.17,43.6,11.44,86.47,27,129.92,39.08,16.51,17.58,28.59,39,42.76,58.23l87.19-13.93-2.1-31.15c-9.23-14.49-17.81-21.38-11.83-40.28,39.89-68.51,78.52-137.87,118.06-206.44ZM810.61,32.3h-2.78s-117.11,202.88-117.11,202.88c7.97-3.81,15.05-6.1,23.79-7.7,51.85-9.5,105.25-11.08,157.4-2.98,18.25,2.83,36.1,7.63,53.8,12.69l-115.11-204.88ZM693.72,348.19v434.5s4-5.5,4-5.5c3.02-3.27,7.28-9.27,10.5-12s9.72-4.61,11.05-8.95c2.49-8.16-.92-24.01.45-33.05.5-8.89-.99-14.96,2.81-23.69,1.24-2.85,3.49-4.43,4.19-7.31.47-.47,1.76-1.82,2-2l2-2c21.2-12.66,39.53-3.35,46,19,.84,2.91,1.56,6.02,2,9,1.22,8.96-2.09,24.18,1,32,.21.52-.6,1.89.61,2.08,29.2-8,63.5,12.07,59.39,44.93l80.01-1.01v-441.5c0-1.87,8.28-16.32,9.5-20.5,3.48-11.98,3.07-26.31,5.97-38.03,3.22-13,16.51-21.65-1.17-32.77-41.64-26.21-144.06-28.7-191.51-19.91-17.44,3.23-52.46,12.17-66.29,22.71-14.72,11.22,1.51,21.6,4.79,32.2s.47,23.23,2.9,34.1c.9,4,7.98,13.06,9.8,17.7ZM570.44,479.48c-3.92-3.22-13.82,1.38-17.59-5.92-3-5.8.13-29.9,1.01-37.73,2.79-24.74,8.23-49.25,11.69-73.89l-37.28-54.8c-5.22-4.65-22.55-7.27-30.31-9.69-26.46-8.25-52.19-18.84-79.23-25.26-.46,3.28,1.43,5.92,2.83,8.66,18.52,36.51,44.56,73.89,65.34,109.66,19.16,33,36.93,66.79,56.39,99.61,1.21,1.95,2.99,2.36,4.99,3.01,6.54,2.15,21.4,5.76,28.21,6.79,1.75.26,3.48.38,5.24.25l-11.28-20.7ZM371.73,331.19c6.94-.51,47.22-9.25,49.57-12.99,1.11-1.77-3.26-8.56-4.4-10.68-1.99-3.67-16.97-28.64-18.69-29.32l-26.48,52.99ZM425.72,340.19l-.58-2.02c-4.51.53-17.42.8-17.42,6.52v72c0,.36,1.05,1.6,1.14,2.37.69.41,15.05-1.16,15.86-1.87,1.07-.94.92-1.03,1.06-2.4,2.34-23.43-1.86-50.76-.06-74.6ZM378.72,423.19c1.62,1.65,12.87-.16,15.24-1.26,2.91-1.34,2.53-2.37,2.82-5.18.96-9.49-.95-19.84-1.1-29.02-.24-14.5.26-29.05.04-43.54l-16.35,2.97c-1.18.22-.54,1.31-.65,2.04-.05.32.02.67,0,1v73ZM438.72,419.19l3.19-2.31c2.1-7.81,16.86-28.62,16.86-35.19,0-3.1-2.82-6.32-3.89-9.17l-16.17-26.33v73ZM366.72,353.19c-.18-4.27-3.77-1.62-5.2,1.3l-27.7,64.18,5.48,12.55c4.58-1.76,25.73-1.4,27.28-5.7.46-1.27.06-2.97.14-4.33,1.17-20.78.89-47.1,0-68ZM675.73,351.19c-15.49.94-30.9,3.69-46.19,6.32-6.89,1.19-42.88,7.13-45.82,10.18-7.86,31.6-11.05,64.09-14,96.51l104.9-15.1,1.11-97.91ZM995.63,379.28c-2.19-3.21-33.6,2.22-39.1,3.22-3.2.58-17.22,2.81-18.33,4.67l.51,85.02c.69.69,16.99-1.17,18.09-2.66l38.44-86.33c.33-1.05.95-3.1.38-3.93ZM349.72,510.2c1.56-8.25-3.63-13.86-6.19-20.31-3.9-9.83-7.38-19.85-11.34-29.66s-17.83-36.84-16.25-45.28c.69-3.7,9.04-18.63,7.36-20.81l-55.57-14.93c-.94.94,8.56,21.85,9.82,24.67,14.66,32.85,31.39,64.92,46.35,97.65,1.12,4.57,24.85,9.66,25.83,8.67ZM252.7,392.2l-50.98,125.99c13.33-2.14,15.05,2.56,21.17-10.32,13.7-28.87,24.12-60.8,38.36-89.64,2.73-9.81-5.38-17.53-8.55-26.03ZM463.72,408.19c-6.74,13.95-13.26,28.06-20,42-1.59,3.3-15.27,28.74-13.99,29.99l77.92-12.08c1.75-2.53-6.49-14.27-8.1-17.23-1.27-2.33-2.68-4.44-3.79-6.42-8.67-15.42-17.48-30.78-26.04-46.26-1.08-.82-5.41,8.8-5.99,10ZM963.72,491.19l-.06,116.39,21.06,4.61c9.66,2.65,21.09,5.96,31,7,.78.08,2.94.44,3.02-.59-.35-36.13.41-72.3-.02-108.41-.04-3.79-1.62-20.49-.55-22.05,2.51-3.65,8.19,3.23,11.09,4.01,2.1.57,1.5-1.07,1.45-2.44-.36-9.85-7.57-31.91-10.48-42.54-4.4-16.13-9.06-32.36-15.02-47.98-6.64,16.35-12.57,33.09-19.76,49.23-1.42,3.19-4.15,6.22-5.61,9.39-5.17,11.17-8.7,24.05-16.12,33.38ZM1071.73,425.19l-40,2.01,16.01,57.99,11.45-22.03c3.22-10.56,9.2-22.52,12.06-32.94.47-1.69.64-3.29.48-5.03ZM236.72,515.18c21.33-2.99,42.48-7.4,63.75-10.74.91-.38,1.84-.93,2.15-1.92,1.3-4.13-29.4-60.75-30.91-70.32l-34.99,82.99ZM431.72,435.2c-1.33-1.18-30.9,3.39-35.33,4.16-2.63.46-12.85,1.45-13.54,3.46l-1.13,182.37,27.51-2,2.36-1.64.18-127.9c-.66-7.1-4-9.24-1.25-17.17,4.69-13.54,16.38-27.42,21.2-41.28ZM366.73,445.19c-1.24-1.22-21.06,3.28-21.04,4.58l19.53,46.43,1.5-51.01ZM1094.72,532.19c1.67-4.14,1.61-2.44,6.01-3.51-5.51-21.92-9.66-45.15-16.3-66.7-.52-1.68-2.74-9.75-4.22-9.76l-26.99,60.99c-3.45,3.09-14.97-.31-19.51-1.01-.04.99.02,2,0,3-.86,34.35-.69,70.62,0,105,.03,1.33-.04,2.67,0,4l61.01,10v-102ZM674.72,471.19c-.15-.39.3-1.29-.09-1.87l-27.91,3.87v131c5.53-.72,22.38-.22,25.5-4.03,1.01-1.23,1.07-2.61,1.5-3.97.54-1.71.8-1.7,1-4,.76-8.69-.08-19.06,0-28,1.66-1.04,1-3.79,1.02-5.49.33-26.34,1.96-58.37.05-84.13-.14-1.95-.55-2.07-1.07-3.38ZM598.72,523.69v84.5c7.79-.27,16.7-.2,24.39-1.11,2.42-.29,6.65-1.03,7.42-3.58.63-30.61-.15-61.24.15-91.85.03-2.59,1.04-5.06,1.09-7.91.15-8.93.12-17.79-2.14-26.44-6.72,1.59-29.26.33-33.93,3.37-1.54,1-.49,5.32.12,6.73.4.94,1.66.97,2.19,2.05,2.41,4.92,9.52,16.84,9.76,21.27.56,10.21-8.24,10.16-9.04,12.96ZM515.72,604.19c.25,1.17.29,4.76,1.65,5.07l20.34-2.08-.99-38.99c.04-18.98-.03-38.02,0-57,.36-3.03-3.97-2.71-6.42-5.08-3.48-3.38-4.62-10.52-8.58-13.92-.86-3.36-3.04-7.19-5-10-1.43-2.05-1.95,1.35-2.05,2.45,2.45,37.62-3.08,79-.02,116.17.16,1.95.9,2.58,1.07,3.38ZM1136.73,483.2c-9.99-1.99-20.01-.74-30.01,0l10.01,44.99c1.98.39,2.38-.93,3.19-2.3,3.8-6.41,13.46-30.53,15.84-38.16.47-1.5,1.18-2.9.97-4.53ZM498.72,524.19c.1-11.98-.08-24.02,0-36l-26,3v64c5.77,1.31,17.5.9,23-1,.86-.3,1.22.26,2-1,1.39-2.25.89-7.28,1-10,.04-1-.03-2,0-3,.12-4.32-.05-8.68,0-13,.01-1,0-2,0-3ZM949.72,491.19c-.09-.92.56-2.86-.59-3.02-3.2.21-9.05-1.23-10.21,2.72-.15,35.91-2.11,71.65-.97,107.61,1.97,5.58,7.59,5.7,12.75,4.67l-.99-106.99c-.03-1.64.15-3.38,0-5ZM428.77,497.24l-.91,63.31c.19.84.71,1.23,1.5,1.5,2.12.7,20.17-1.13,22.61-2.11s3.62-3.68,3.77-6.23l-.47-56.57c-.35-.84-.76-2-1.54-2.46-4.2-2.48-19.54,2.48-24.96,2.56ZM163.72,521.19h15.5c2.14,0,7.91-17.08,9.01-19.98-6.54,3.88-15.53,8.87-20.98,14.01-1.84,1.74-4.04,2.98-3.53,5.97ZM1109.72,586.19l-.52,52.02,48.52,9.99v-95.01c1.95-.62,9.47,1.55,9.01-1.49-4.24-10.4-7.09-21.33-11.26-31.75-1.09-2.72-6.74-20.1-10.74-16.75l-16.96,46.29c-1.87,2.29-5.5,1.55-8.05,1.71-3.3.21-6.7-.15-10.01,0-.03,11.65.05,23.35,0,35.01ZM553.72,514.19v86c-.78,9.59,6.55,5.58,12.5,8h15.5v-87.5c0-1.54-19.93-6.85-22.75-7.24-1.44-.2-4.61-1.12-5.25.74ZM302.72,522.19l-13.95,1.05-1.11,57.37c5.58,3.12,9.56.18,15.06-.42v-58ZM325.72,637.19c3.95.27,8.04-.2,12.01,0,.04-3.32-.06-6.68,0-10.01.53-32.5-.44-65.08.06-97.6.17-1.32-.28-1.63-1.06-2.4-1.65-1.65-11.13-2.86-14-3-.71-.32-3.75-2.32-3.99-2l.48,113.01c1.53,2.6,4.05,1.83,6.51,1.99ZM272.72,583.19v-54.5c0-.62-1.31-1.27-2.25-1.3-.89-.03-14.39,1.7-15.12,1.94-.94.3-1.04.84-1.47,1.53-2.36,3.8-.97,25.64-1.12,31.88-.1,4.2-2.6,18.65-.6,21.52s16.92-.85,20.56-1.06ZM365.73,626.2l-.07-89.44c-1.02-6.6-5.32-7.44-11.28-7.63-3.41,3.7-.72,8.45-.62,12.53.71,27.94-.56,56.01-.11,83.96,2.7.34,3.32,3.18,5.56,2.6.4-.11.38-1.82,1.17-2.01,1.39-.32,5.03.29,5.34,0ZM220.72,571.19c.09,3.19-.03,15.91,1.14,17.85.46.76,5.16,1.35,6.4,1.26,1.82-.14,1.34-1.92,2.14-2.09,1.84-.4,4.9.57,6.16-.19,3.39-2.03,1.98-23.48,2.12-28.37s3.19-24.23-.92-27.01c-1.15-.78-15.12,1.1-15.85,1.74-1.89,1.65-1.24,26.3-1.19,30.81,0,.33,0,.67,0,1,.02,1.33-.03,2.67,0,4,0,.33,0,.67,0,1ZM176.72,537.19v100.5c0,1.69,15.02,3.31,17.51,3.49,3.04.23,7.59.6,10.45.6.83,0,2.04-.37,2.04-1.09v-102c0-.11-1.39-1.5-1.5-1.5h-28.5ZM428.72,579.19c-1.07.93-.92,1.03-1.06,2.4-.75,7.56-.91,26.8.01,34.15.12.96-.33,2.36,1.04,2.45l58.49-5.01c2.06-.52,11.51-1.3,11.51-3.49v-37.5l-70,7ZM53.72,590.19h-30.5c-1.68,0-2.49,3.51-2.31,5.21.27,2.58,6.85,27.96,7.7,29.21.94,1.4,13.61,1.48,16.14-1.9,2.14-2.87,10.47-31.03,8.98-32.52ZM249.72,603.19c-9.63,1.29-19.28,2.98-28.95,4.05.33,10.23-1.08,20.92.95,30.95.18.88-.14,2.04,0,3,11.56.32,23.02-1.99,34.51-3,15.4-1.34,31.22-1.66,46.35-4.18.47-.65.09-1.97.14-2.82.57-9.4.46-21.55,0-31-.03-.66.05-1.34,0-2-2.13-1.6-46.58,4.14-53.01,5ZM1096.72,672.19v-17.5l-159-35.5v26l159,27ZM674.72,620.19l-75,7v168h75v-175ZM581.72,795.19v-167.5c0-.56-1.68-1.53-2.5-1.5l-26.5-1v166.5c0,.54,1.55,2.22,1,3.5h28ZM502.72,767.19c10.81,1.8,18.3,5.58,23.17,16.33,2.5,5.5,1.72,17.35,9.63,7.98.36-55.12.56-110.33-.8-165.31l-100,10.5v127.5c6.58-3.08,14.02-1.34,20.95-3.05v-69.49c.29-7.2,5.46-12.95,10.53-17.49,7.13-6.38,9.64-9.12,18.53-3.97,2.53,1.47,4.91,3.97,7,6,.33.32.68.66,1,1,2.78,5.31,6.04,10.49,6.89,16.61l.29,72.23c.08.13,2.41,1.09,2.82,1.16ZM417.72,638.19l-61.5,6c-4.01.59-2.16,5.83-2.5,9.01l64,6v-21ZM418.72,694.19v-16.5c0-.89-3.41-2.26-4.56-2.44-18.8-2.91-41.53-2.35-60.93-4.07-49.05-4.36-97.94-8.32-147.02-11.98-33.33-2.49-66.66-5.9-99.98-7.02-1.5-.05-8.51-2.39-8.51.51v22c0,.63,2.5,4.04,3.69,4.31,9.33-.18,18.58,1.62,27.82,2.18,86.95,5.28,175.14,9.63,262.03,11.97,4.03.11,26.22,2.97,27.46,1.04ZM1140.72,663.19c-8.62-4.51-19.8-3.41-29-7v76.5c0,.15,1.2,2.62,1.49,2.49,8.15-7.24,20.51-5.14,30.51-4l-1-63.99c0-.24-1.81-3.88-2-4ZM938.72,666.19c-1.36,17.65-.87,43.1,0,61,.03.66-.05,1.34,0,2h22.01s0-61.5,0-61.5c-6.2-3.41-14.51-2.87-21.48-4.52-.98.04-.44,2.05-.52,3.02ZM976.72,669.19v62c8.43-1.91,20.22,6.52,21.91-5.59.62-4.45.87-12.14,1.08-16.92.53-11.82-.05-23.74-1-35.48l-1.98,12.99c-.57-3.12,1.18-12.87-.99-14.52-1.57-1.19-18.21-3.29-19.02-2.48ZM1013.72,675.19v56.5c0,.18,2.32,2.5,2.5,2.5h18.5v-51.5c0-.86-1.17-3.25-2.23-3.82-1.52-.81-18.09-4.36-18.77-3.68ZM1048.72,682.19v53l17.01,1.01c-.26-17.3.79-34.69-1.13-51.88-5.1-1.28-10.7-3.87-15.88-2.13ZM1079.72,736.19h15.5c1.1,0,1.43-2.44,1.55-3.45,1.46-12.48-1.03-28.04-.25-40.86-1.06-4.35-16.81-4.83-16.81-2.19v46.5ZM743.95,699.44c-.29.17-4.4,4.39-4.69,4.79-6.82,9.07-2.16,39.46-3.39,51.32.69,2.1,8.18,1.88,11.3,2.7,5.28,1.38,13.47,8.93,14.6.49s.77-40.02-1.34-47.75c-.8-2.92-2.94-7.84-5.35-9.65s-8.71-3.29-11.13-1.9ZM234.72,703.19l-58-2v96h17.5c.36,0,1.62-1.02,2.34-1.17l.16-73.83c.08-.12,1.34-1.17,2-2,4.1-4.22,12.51-2.01,13.79,3.71.84,21.07-.39,42.23.21,63.29.05,1.79-.61,9,1.5,9h23.5c-.07-2.55.87-4.92,1.04-7.46,1.41-20.84,1.2-51.13,0-72.08-.15-2.65-1-12.65-2.61-13.4l-1.43-.06ZM302.72,795.19v-88.5c0-.11-1.39-1.5-1.5-1.5h-20.5v90h22ZM368.72,709.19l-49-1c-1.96,28.9-.59,58.02-1,87.01l50.01-1.01v-85ZM1162.64,776.1c2.84-4.12-8.2-16.34-11.44-18.88-6.9-5.42-22.67-13.43-30.84-8.88-2.66,1.48-7.11,3.61-8.98,4.77-1.65,1.02-1.31,5.87-6.25,6.1-2.74.13-7.9-6.14-12.97-6.95-15.71-2.53-35.65,9.87-34.44,26.94l91.55-.96c2.34-.88,12.53-.91,13.37-2.14ZM939.96,791.95c1.59,1.59,6.97,1.35,9.31,1.28,23.27-.72,46.67-3.5,69.97-5.03,8.59-.56,18.97,2.86,10.32-9.34-9.48-13.35-24.94-11.06-38.35-12.65-10.13-1.2-7.58-13.67-16.76-17.24-6.14-2.38-34.22-4.19-35.72,3.71.94,6.19-1.74,36.28,1.24,39.27ZM1000.22,751.19c2.83.81,14,0,18,0,1.88,0,12.97,4.74,14.85,6.15,2.92,2.18,3.28,5.94,7.15,5.95,4.28.01,3.14-3.41,5.04-6.06s5.99-4.19,5.46-8.03c-12.51-1.25-24.99-.65-37.54-.96-2.77-.07-12.75-2.42-14.45-.03-.53.75.73,2.77,1.5,2.99ZM822.46,798.94c5.23-5.58-1.59-19.02-6.21-23.77-14.96-15.38-37.34-9.67-51.57,3.49-1.75,1.62-5.59,8.11-7.6,8.47-2.21.39-5.6-5.79-7.42-7.37-9.96-8.61-22.8-7.99-32.85.03-8.1,6.46-15.32,22.53-5.4,30.22l98.8-7.82c3.18-.93,10.03-.87,12.25-3.24ZM162.72,797.19v-18.5c0-4.69-8.88-6.26-12.46-6.54-17.08-1.34-43,6-34.87,28.08l47.34-3.04ZM450.51,778.49c-11.09,1.06-24.16,4.95-29.33,15.67-2.34,4.87-3.94,9.2.52,13.55,16.46,1.43,33.08-.22,49.56.44,10.24.42,22,2.91,32,3.07,17.21.28,8.66-22.2-2.14-26.93-12.56-5.51-23.1,5.34-33.1.1-8.17-4.27-5.54-7.04-17.51-5.9ZM694.22,810.19h-165.5c-.36,0-.15,4.38-1.44,7.06-8.07,16.7-33.38,9.23-48.02,8.9-23-.52-58.3,6.65-72.97-14.03-68.27-1.26-137.65-1.99-206.03.11-38.14,1.17-76.03,3.13-113.91,8.09-3.33.44-24.34,3.15-24.66,4.54l6.25,42.62c.62,1.65,2.54,2.53,4.24,2.58,9.03.22,20.76-2.19,30.05-2.85,155.43-11.01,310.8-24.45,465.99-38.01,33.28-2.91,66.77-4.64,99.99-8.01,3.86-.39,25.05-2.4,26.54-3.45,1.74-1.23,1.37-6.95-.54-7.54ZM18.72,871.19h29.5c1.47,0,2.5-5.75,2.43-7.35-.34-8.14-5.44-29.77-7.99-38.09-.31-1.03-1.8-6.22-2.06-6.44-.34-.3-8.45-.31-8.79-.02l-13.1,51.9Z" fill="#35322a"/><path d="M770.72,56.19c-39.54,68.58-78.17,137.93-118.06,206.44-5.98,18.9,2.6,25.79,11.83,40.28l2.1,31.15-87.19,13.93c-14.17-19.23-26.26-40.65-42.76-58.23-43.46-12.07-86.32-27.64-129.92-39.08-6.29-1.65-10.58-4.82-14.83,1.17-4.9,6.91-11.38,21.13-15.69,29.31-16.72,31.71-31.69,64.4-47.47,96.59-21.33-4.87-43.2-8.72-64.22-14.85-6.32-1.85-12.29-7.45-18.3-2.73-2.83,2.22-6.84,13.2-8.66,17.34-13.38,30.36-22.93,62.98-39.33,91.67l-68.02,54.98c-4.91,3.29-1.99,14.03,3.03,14.03h26.5l-2,99c-15.35-.57-30.7-2.04-46-3-33.52-125.81-14.36-261.74,48.83-374.67C257.38,86.45,442.42-8.35,641.08,18.33c44.24,5.94,89.28,19.14,129.64,37.86ZM379.73,178.2c-6-33-49.09-49.47-75.48-27.98-7.88,6.42-15.8,17.24-14.53,27.97-18.87-6.44-41.38,8.07-37.75,29.26.69,4.02,2.95,8.23,7.21,8.79,17.1,2.26,41.38-.95,59-1.1,33.41-.29,68.86-1.23,102.09,0,2.85.11,5.55,1.41,8.45,1.04-1.68-4.78.32-8.65,0-13.47-1.15-17.37-18.97-32.05-36.26-29.28-4.83.77-8.2,4.43-12.74,4.76Z" fill="#b7e7f8"/><path d="M1210.72,816.19c-14.81,65.08-62.41,93.15-124.81,104.69-47.53,8.79-98.51,14.19-146.69,19.31-143.64,15.26-296.79,26.6-440.95,22.97-87.72-2.21-188.29-6.4-258.54-63.96,20.13-4.36,41.01-3.98,61.49-6.01,235.02-23.23,470.65-42.38,706-63,44.01-3.86,87.98-9.56,132.01-12.99,19.8-1.54,47.85-4.8,67.02-3.03,1.77.16,3.44.33,4.48,2.02ZM973.99,858.94c2.09,2.22,11.98,3.52,15.4,4.09,18.49,3.1,38,4.64,56.69,7.31,14.77,2.11,33.91,7.46,48.19,7.88,7.56.22,11.7-7.36,4.37-11.45-2.54-1.41-5.89-1.66-8.74-2.26-25.13-5.28-53.9-6.71-79.54-10.46-9.02-1.32-20.93-5.49-29.3-5.78-6.66-.23-11.54,5.94-7.08,10.67ZM753.46,868.35c-12.79,7.92-3.23,11.44,6.08,13.53,25.49,5.7,54.28,7.58,80.52,11.48,16.36,2.43,35.14,7.63,51.18,8.82,4.45.33,14.72,1.54,15.27-4.64.44-4.95-7.74-7.67-11.59-8.05l-141.47-21.14ZM434.88,898.36c-.28.17-2.05,4.63-2.14,5.42-.6,5.12,1.07,6.99,5.74,8.15,39.51,9.84,85.64,10.52,125.78,20.27,15.61-.07,9.5-12.89-2.5-13.54-35.76-4.86-71.15-12.98-106.82-18.18-2.96-.43-18.86-2.85-20.05-2.12Z" fill="#b4ada8"/><path d="M881.72,120.19c2.25-.45,3.08.92,4.57,1.92,19.73,13.21,36.15,31.53,53.06,48.01,15.04-12.83,31.43-17.9,51.25-14.04,21.15-46.92,93.68-28.33,90.12,23.11,40.29-8.52,64.22,43.85,36.53,72.04-20.26,20.62-67.94,8.77-95.06,11.94-6.35.74-6.08,2.85-3.97,8.01,8.72,21.32,20.53,40.83,28.52,63.47s11.45,46.29,18.21,68.79c.89,2.96,4.31,4.12,2.76,6.74-.15,0-1.13.95-2.42,1.05-11.86.91-23.92,2.1-35.63,2.51-2-1.36-11.74-40.09-13.92-46.09-2.95-8.12-2.92-9.36-12.28-8.2-18.67,2.31-41.35,11.72-60.41,12.67-1.21.06-4.7-.29-5.2-1.08-.56-.89-.23-11.18.1-13.11.98-5.85,7.2-14.87,9.27-21.73,3.51-11.63,2.74-23.92,5.97-35.03,2.94-10.11,10.09-15.79,10.53-27.52.49-13.32-13.68-30.95-20.18-42.79-20.35-37.01-41.12-73.81-61.83-110.67ZM1065.73,212.19c-5.41-34.21-49.45-42.93-66.59-12.03-32.31-15.91-49.54,33.57-13.81,39.92,31.01-1.74,65.25,2.71,95.88.09,27.42-2.35,25.43-30.93,4.01-32.97-7.31-.7-13.65.36-19.48,4.99Z" fill="#b7e7f8"/><path d="M1213.72,789.19c.59.04,1.91-.2,1.92.42-.83,7.92-1.83,15.72-3.38,23.67-.27,1.36-1.43,2.44-1.54,2.92-1.04-1.69-2.71-1.86-4.48-2.02-19.16-1.78-47.21,1.49-67.02,3.03-44.03,3.42-88,9.13-132.01,12.99-235.35,20.63-470.98,39.77-706,63-20.49,2.03-41.36,1.64-61.49,6.01-1.11-.91-3.97-1.64-6.01-3.49-5.78-5.25-10.65-11.35-15.98-17.01l6.51-.49-.52-1c.49-.04,2.08-.84,4-1,.57,1.68,3.04,1.25,4,0,221.52-18.4,442.62-39.4,664-59,1.6,1.64,5.4,1.17,7.55,1.04,40.99-2.48,81.99-7.88,122.96-11.04,47.53-3.66,95.41-4.71,142.49-11.01,10.36-1.39,20.99-2.59,31.39-4.11,4.71-.69,8.62-3.19,13.61-2.89Z" fill="#fbe8c6"/><path d="M693.72,348.19c-1.82-4.65-8.9-13.7-9.8-17.7-2.44-10.86.44-23.32-2.9-34.1s-19.51-20.98-4.79-32.2c13.83-10.54,48.85-19.48,66.29-22.71,47.45-8.79,149.87-6.31,191.51,19.91,17.67,11.12,4.38,19.77,1.17,32.77-2.9,11.72-2.49,26.06-5.97,38.03-1.22,4.19-9.5,18.63-9.5,20.5v441.5l-80.01,1.01c4.11-32.85-30.19-52.92-59.39-44.93-1.2-.18-.4-1.56-.61-2.08,1.7-.39.95-3.12,1-4.5.38-9.69.94-24.62-1.3-33.75-.42-1.7-.33-3.23-2.7-2.75-6.47-22.35-24.8-31.66-46-19-1.33.79-1.54,1.65-2,2-.24.18-1.53,1.53-2,2-.13.13-1.22-.28-1.76.2-2.27,2.01-7.24,15.14-7.24,18.3v45.5c1.76.22.95-2.26,1-3.49.37-9-.44-18.1-.04-27.09.06-1.3,1.03-2.26,1.04-2.42-1.37,9.05,2.04,24.89-.45,33.05-1.33,4.35-7.74,6.15-11.05,8.95s-7.48,8.73-10.5,12l-3,1.5.07-427.1c.56-1.63-.73-2.55-1.07-3.4ZM725.72,364.19c-3.59,4-7,10.97-7,16.5v55c0,.96-1.09,3.41-1.06,6.01.02,1.91.81,7.22,2.06,8.49,4.22,4.29,17.93,1.04,23.46.96,5.24-.08,32.15.97,34.07-.93s1.34-5.59,1.47-8.03c1.66-1.04,1-3.8,1.02-5.49.16-14.76,2.32-53.46-1.83-65.2-1.17-3.3-2.96-5.84-5.19-8.31-14.33-15.9-33.2-14.37-47,1ZM721.72,616.19c.2.34-.59,1.81.62,2.05,15.6-1.01,32.48,1.18,47.91,0,1.45-.11,4.74-.42,5.8-1.02,1.24-.7.51-1.86.66-2.02.3-.31.89-.81,1-1,.27-.47,2.71-1.14,2.05-3.44-1.77-21.06,2.18-45.43-.05-66.07-.23-2.17-5.03-14.63-6.02-15.49-.67-.59-.92,1.01-.99,1-.37-.07-3.74-4.5-4.99-5.51-8.35-6.74-17.84-8.16-28.25-5.23-10.85,3.05-18.95,17.42-19.8,28.2-1.23,15.6-1.72,48.93,0,64.07.33,2.91.94,2.64,2.03,4.46Z" fill="#fbe8c6"/><path d="M810.61,32.3l115.11,204.88c-17.7-5.05-35.56-9.86-53.8-12.69-52.15-8.09-105.55-6.51-157.4,2.98-8.74,1.6-15.81,3.89-23.79,7.7l117.11-202.88h2.78Z" fill="#d1a56f"/><path d="M694.22,810.19c1.91.59,2.28,6.31.54,7.54-1.5,1.06-22.68,3.06-26.54,3.45-33.22,3.37-66.71,5.1-99.99,8.01-155.19,13.56-310.57,26.99-465.99,38.01-9.29.66-21.03,3.06-30.05,2.85-1.7-.04-3.62-.92-4.24-2.58l-6.25-42.62c.33-1.39,21.33-4.1,24.66-4.54,37.88-4.95,75.78-6.92,113.91-8.09,68.38-2.1,137.76-1.37,206.03-.11,14.67,20.68,49.97,13.51,72.97,14.03,14.64.33,39.95,7.8,48.02-8.9,1.29-2.68,1.08-7.06,1.44-7.06h165.5Z" fill="#d1a56f"/><path d="M570.44,479.48l11.28,20.7c-1.76.13-3.49.01-5.24-.25-6.81-1.03-21.67-4.64-28.21-6.79-2-.66-3.78-1.06-4.99-3.01-19.46-32.82-37.23-66.61-56.39-99.61-20.78-35.77-46.82-73.15-65.34-109.66-1.39-2.75-3.29-5.39-2.83-8.66,27.04,6.42,52.77,17.01,79.23,25.26,7.76,2.42,25.09,5.04,30.31,9.69l37.28,54.8c-3.46,24.64-8.89,49.14-11.69,73.89-.88,7.83-4.01,31.92-1.01,37.73,3.77,7.3,13.67,2.7,17.59,5.92Z" fill="#d1a56f"/><polygon points="674.72 620.19 674.72 795.19 599.72 795.19 599.72 627.19 674.72 620.19" fill="#d1a56f"/><path d="M675.73,351.19l-1.11,97.91-104.9,15.1c2.95-32.43,6.14-64.92,14-96.51,2.95-3.04,38.93-8.99,45.82-10.18,15.29-2.63,30.7-5.38,46.19-6.32Z" fill="#d1a56f"/><path d="M484.72,670.19c-8.88-5.15-11.39-2.41-18.53,3.97-5.07,4.53-10.24,10.28-10.51,17.49v69.49c-6.94,1.71-14.38-.03-20.96,3.05v-127.5l100-10.5c1.37,54.99,1.16,110.19.8,165.31-7.91,9.37-7.13-2.48-9.63-7.98-4.88-10.74-12.36-14.53-23.17-16.33l-2.07-2.55-.04-72.84c-.8-6.63-3.68-10.12-7.89-14.61-.32-.34-.67-.68-1-1-.36-2.94-4.27-5.14-6.51-6.97l-.49.97Z" fill="#fbe8c6"/><path d="M418.72,694.19c-1.24,1.93-23.43-.93-27.46-1.04-86.89-2.34-175.08-6.69-262.03-11.97-9.24-.56-18.49-2.36-27.82-2.18-1.19-.27-3.69-3.68-3.69-4.31v-22c0-2.89,7.01-.56,8.51-.51,33.32,1.12,66.65,4.53,99.98,7.02,49.07,3.66,97.97,7.63,147.02,11.98,19.4,1.72,42.13,1.16,60.93,4.07,1.16.18,4.56,1.55,4.56,2.44v16.5Z" fill="#d1a56f"/><path d="M963.72,491.19c7.42-9.33,10.95-22.21,16.12-33.38,1.47-3.17,4.19-6.19,5.61-9.39,7.19-16.14,13.13-32.88,19.76-49.23,5.95,15.62,10.61,31.85,15.02,47.98,2.9,10.63,10.11,32.68,10.48,42.54.05,1.38.65,3.01-1.45,2.44-2.9-.79-8.58-7.67-11.09-4.01-1.07,1.55.51,18.25.55,22.05-1.66,1.04-1,3.79-1.02,5.49-.4,32.37,2.29,68.34.09,100.11-.14,2.02-.17,2.45-2.07,3.41-9.91-1.04-21.34-4.35-31-7-3.54-.97-16.38-3.99-18.34-5.16-1.03-.61-1.66-.97-1.67-2.33l-.99-113.51ZM1010.72,590.19v-86c-.99-1.34-1.8-2.37-3.41-3.09-4.32-1.92-20.09-7.48-24.53-8.47-1.34-.3-5.19-.99-5.97-.33-3.38,2.86.69,78.05-1.64,88.43.35,4.06,7.02,5.15,10.33,6.17,4.64,1.44,22.05,6.47,25.22,3.28Z" fill="#fbe8c6"/><path d="M431.72,435.2c-4.82,13.86-16.51,27.74-21.2,41.28-2.75,7.94.59,10.07,1.25,17.17l-.18,127.9-2.36,1.64-27.51,2,1.13-182.37c.68-2.01,10.91-3,13.54-3.46,4.43-.78,34-5.34,35.33-4.16Z" fill="#fbe8c6"/><path d="M1033.72,515.19c.03-1-.03-2,0-3,4.54.7,16.06,4.1,19.51,1.01l26.99-60.99c1.47.02,3.7,8.09,4.22,9.76,6.64,21.56,10.79,44.79,16.3,66.7-4.4,1.07-4.34-.62-6.01,3.51-.54,1.34-.9,1.4-1.07,3.38-2.44,27.63-.3,64.61.05,93.13.02,1.69-.64,4.45,1.02,5.49l-61.01-10c-.04-1.33.03-2.67,0-4v-105ZM1055.72,515.19c-1.4.54-.97,1.26-1.05,2.44-1.1,15.89-.7,33.08-1,49.02-.22,11.83.25,23.72.06,35.54,1.74.23.94-2.27.99-3.48.26-6.34-.26-12.75-.04-19.09.04-1.29,1.04-2.29,1.04-2.42.76,4.58-1.44,23.16.97,25.53,1.77,1.74,21.67,6.24,24.84,6.28,2.45.03,2.56-1,4.18-1.8.05-.02.83,1.85,1,.5v-82c.02-1.19-.95.52-1,.5-1.48-.73-.78-2.89-3.24-4.26-.96-.54-19.33-6.99-20.73-7.29-.9-.2-5.31.28-6.03.56Z" fill="#fbe8c6"/><path d="M581.72,795.19h-28c.55-1.28-1-2.96-1-3.5v-166.5l26.5,1c.82-.03,2.5.94,2.5,1.5v167.5Z" fill="#d1a56f"/><path d="M1119.72,551.19c2.56-.16,6.18.58,8.05-1.71l16.96-46.29c4-3.35,9.65,14.04,10.74,16.75,4.17,10.43,7.02,21.35,11.26,31.75.47,3.04-7.06.87-9.02,1.49v95.01s-48.51-9.99-48.51-9.99l.52-52.02c-.06,13.94-.58,28.65,0,42.51.05,1.23-.76,3.71,1,3.49v-78.5c0-2.56,7.89-.43,9-2.5ZM1123.72,552.2c-4.16-.5-4.16,1.48,0,.98v-.98ZM1132.72,560.19s-.8-1.88-1-.5v60.99c1.42,1.62.98-1.12,1.01-1.98.37-12.46,0-25.06,0-37.52l1.01,40.99c3.16-.53,8.19,1.97,10.99,1.01,1.43-.49.97-1.32,1.05-2.44.89-13.51,1.65-48.65-1.05-60.56-.19-.86.15-2.06-.02-3.01-.6-.12-.91,1.03-.98,1.01-.72-.15-1.74-1.55-2.73-1.77-5.05-1.16-4.93,2-8.27,3.77Z" fill="#fbe8c6"/><path d="M1144.72,620.19c-1.66-1.04-1-3.79-1.02-5.49-.23-18.16.02-36.37.02-54.51h1v60Z" fill="#fbe8c6"/><path d="M368.72,709.19v85l-50.01,1.01c.41-28.99-.96-58.11,1-87.01l49,1Z" fill="#d1a56f"/><path d="M234.72,703.19l1.43.06c1.6.75,2.46,10.75,2.61,13.4,1.2,20.95,1.41,51.24,0,72.08-.17,2.54-1.11,4.91-1.04,7.46h-23.5c-2.11,0-1.45-7.21-1.5-9,1.66-1.04,1-3.79,1.02-5.49.24-19.25-.01-38.54-.26-57.78-1.52-6.28-6.78-7.94-12.81-6.28-3.82,1.05-1.82,2.39-1.95,2.55-.66.83-1.92,1.88-2,2-.4.63-1.41,1.08-1.06,2.39l.07,70.61-18,.99v-94l57,1Z" fill="#fbe8c6"/><path d="M598.72,523.69c.81-2.81,9.61-2.75,9.04-12.96-.25-4.43-7.35-16.36-9.76-21.27-.53-1.08-1.79-1.11-2.19-2.05-.6-1.41-1.65-5.74-.12-6.73,4.67-3.04,27.21-1.78,33.93-3.37,2.26,8.66,2.29,17.52,2.14,26.44-.05,2.85-1.06,5.32-1.09,7.91-.31,30.61.48,61.24-.15,91.85-.77,2.55-5,3.29-7.42,3.58-7.69.92-16.59.84-24.39,1.11v-84.5Z" fill="#fbe8c6"/><path d="M349.72,510.2c-.99.98-24.71-4.11-25.83-8.67-14.95-32.73-31.68-64.8-46.35-97.65-1.26-2.82-10.76-23.73-9.82-24.67l55.57,14.93c1.68,2.18-6.68,17.12-7.36,20.81-1.57,8.44,12.46,35.87,16.25,45.28s7.44,19.83,11.34,29.66c2.56,6.45,7.75,12.06,6.19,20.31Z" fill="#d1a56f"/><polygon points="1096.72 672.19 937.72 645.19 937.72 619.19 1096.72 654.69 1096.72 672.19" fill="#d1a56f"/><path d="M673.72,596.19c-.43,1.36-.49,2.74-1.5,3.97-3.12,3.8-19.97,3.3-25.5,4.03v-131l27.91-3.87c.38.58-.07,1.49.09,1.87l-1,4.5c.31,37-.41,74.02-.02,111.01.02,1.69-.64,4.45,1.02,5.49-.2,2.3-.46,2.29-1,4,.72-.78-.54-2.92-.99-1.99-.51,1.05.51,2.51.99,1.99Z" fill="#fbe8c6"/><path d="M822.46,798.94c-2.22,2.37-9.08,2.31-12.25,3.24l-98.8,7.82c-9.92-7.69-2.7-23.76,5.4-30.22,10.06-8.02,22.9-8.64,32.85-.03,1.82,1.57,5.21,7.76,7.42,7.37,2.01-.36,5.85-6.85,7.6-8.47,14.23-13.15,36.61-18.87,51.57-3.49,4.62,4.75,11.44,18.2,6.21,23.77Z" fill="#d1a56f"/><path d="M995.63,379.28c.57.83-.06,2.88-.38,3.93l-38.44,86.33c-1.1,1.49-17.4,3.34-18.09,2.66l-.51-85.02c1.11-1.86,15.13-4.09,18.33-4.67,5.5-1,36.9-6.43,39.1-3.22Z" fill="#d1a56f"/><path d="M176.72,537.19h28.5c.11,0,1.5,1.39,1.5,1.5v102c0,.72-1.21,1.09-2.04,1.09-2.86,0-7.41-.37-10.45-.6-2.49-.18-17.51-1.8-17.51-3.49v-100.5Z" fill="#fbe8c6"/><path d="M463.72,408.19c.58-1.19,4.91-10.82,5.99-10,8.56,15.48,17.36,30.84,26.04,46.26,1.11,1.98,2.52,4.09,3.79,6.42,1.61,2.96,9.85,14.7,8.1,17.23l-77.92,12.08c-1.27-1.25,12.4-26.7,13.99-29.99l3.53-4.97c4.6-11.36,10.68-22,15.98-33.01.49-1.02,2.5-3.41.49-4.01Z" fill="#fbe8c6"/><path d="M939.96,791.95c-2.99-2.99-.3-33.08-1.24-39.27,1.5-7.9,29.58-6.09,35.72-3.71,9.18,3.57,6.64,16.04,16.76,17.24,13.41,1.59,28.87-.7,38.35,12.65,8.66,12.2-1.73,8.77-10.32,9.34-23.3,1.53-46.7,4.31-69.97,5.03-2.34.07-7.72.31-9.31-1.28Z" fill="#d1a56f"/><path d="M249.72,603.19c6.42-.86,50.88-6.6,53.01-5,.05.66-.04,1.33,0,2-1.66,1.04-1,3.79-1.02,5.49-.08,6.66-.07,13.37,0,20.03.02,1.69-.64,4.45,1.02,5.49-.05.86.33,2.18-.14,2.82-15.13,2.52-30.95,2.84-46.35,4.18-11.49,1-22.96,3.32-34.51,3-.14-.96.18-2.12,0-3,2.57-3.65-.1-28.97.99-30,7.52-.57,15.17-1.56,22.59-2.91,1.73-.32,3.76.26,4.42-2.08Z" fill="#fbe8c6"/><path d="M428.72,579.19l70-7v37.5c0,2.19-9.45,2.97-11.51,3.49l-58.49,5.01v-1c1.66-1.04,1-3.79,1.02-5.49.09-8.33.1-16.7,0-25.03-.02-1.69.64-4.45-1.02-5.49v-2Z" fill="#fbe8c6"/><path d="M236.72,515.18l34.99-82.99c1.5,9.58,32.21,66.2,30.91,70.32-.31.99-1.24,1.54-2.15,1.92-21.26,3.34-42.42,7.75-63.75,10.74Z" fill="#fbe8c6"/><path d="M553.72,514.19c.63-1.86,3.8-.94,5.25-.74,2.83.4,22.75,5.7,22.75,7.24v87.5h-15.5c-5.95-2.42-13.28,1.59-12.5-8v-86Z" fill="#fbe8c6"/><path d="M1162.64,776.1c-.85,1.22-11.03,1.25-13.37,2.14l-91.55.96c-1.21-17.08,18.73-29.47,34.44-26.94,5.07.82,10.23,7.08,12.97,6.95,4.94-.23,4.61-5.08,6.25-6.1,1.88-1.16,6.32-3.28,8.98-4.77,8.16-4.55,23.94,3.46,30.84,8.88,3.24,2.54,14.28,14.76,11.44,18.88Z" fill="#d1a56f"/><path d="M450.51,778.49c11.97-1.14,9.34,1.63,17.51,5.9,10,5.23,20.54-5.61,33.1-.1,10.8,4.74,19.35,27.22,2.14,26.93-10-.16-21.76-2.66-32-3.07-16.48-.67-33.09.99-49.56-.44-4.46-4.35-2.87-8.69-.52-13.55,5.16-10.72,18.24-14.61,29.33-15.67Z" fill="#d1a56f"/><path d="M252.7,392.2c3.17,8.5,11.28,16.22,8.55,26.03-14.24,28.84-24.66,60.76-38.36,89.64-6.11,12.88-7.84,8.19-21.17,10.32l50.98-125.99Z" fill="#fbe8c6"/><path d="M521.72,492.19c3.96,3.4,5.09,10.55,8.58,13.92,2.45,2.37,6.79,2.04,6.42,5.08-1.66,1.04-1,3.79-1.02,5.49-.28,26.33.25,52.68.01,79.01,1.42,1.62.98-1.11,1.01-1.98.25-8.48-.02-17.04,0-25.52l.99,38.99-20.34,2.08c-1.36-.31-1.4-3.9-1.65-5.07,1.7-.39.95-3.12,1-4.5,1.49-37.82-1.12-76.59.01-114.49l4.99,6.99Z" fill="#fbe8c6"/><path d="M302.72,795.19h-22v-90h20.5c.11,0,1.5,1.39,1.5,1.5v88.5Z" fill="#fbe8c6"/><path d="M1140.72,663.19c.19.12,2,3.76,2,4,0,.18-1.08,1.56-1.07,3.38.08,19.54.08,39.09.07,58.62-10.17-1.75-18.49-.99-28,2.99l-1-73.99c5.19,2.47,24.8,2.98,27.99,5Z" fill="#fbe8c6"/><path d="M322.72,524.19c4.8,2.19,12.52,1.74,13.05,6.45l-.05,105.56-10,.99c-2.46-.17-4.98.61-6.51-1.99l-.48-113.01c.24-.32,3.28,1.68,3.99,2Z" fill="#fbe8c6"/><path d="M428.77,497.24c5.42-.08,20.76-5.03,24.96-2.56.78.46,1.19,1.62,1.54,2.46l.47,56.57c-.15,2.54-1.26,5.22-3.77,6.23s-20.5,2.8-22.61,2.11c-.79-.26-1.3-.65-1.5-1.5l.91-63.31Z" fill="#b7e7f8"/><path d="M495.72,554.19c-5.5,1.9-17.23,2.31-23,1v-64l26-3c-.08,11.99.1,24.02,0,36-1.5.14-1.5,2.86,0,3-.05,4.32.12,8.68,0,13-1.5.14-1.5,2.86,0,3-.11,2.72.39,7.75-1,10l-2,1Z" fill="#b7e7f8"/><path d="M366.72,421.19c-.08,1.36.32,3.06-.14,4.33-1.55,4.3-22.7,3.94-27.28,5.7l-5.48-12.55,27.7-64.18c1.43-2.92,5.01-5.57,5.2-1.3v68Z" fill="#fbe8c6"/><path d="M743.95,699.44c2.41-1.39,8.81.16,11.13,1.9s4.56,6.73,5.35,9.65c2.11,7.73,2.48,39.34,1.34,47.75s-9.33.89-14.6-.49c-3.12-.81-10.61-.59-11.3-2.7,1.23-11.87-3.42-42.26,3.39-51.32.3-.39,4.4-4.62,4.69-4.79Z" fill="#b7e7f8"/><path d="M976.72,669.19c.81-.81,17.45,1.29,19.02,2.48,2.17,1.64.42,11.4.99,14.52l1.98-12.99c.95,11.74,1.53,23.66,1,35.48-.22,4.78-.46,12.47-1.08,16.92-1.69,12.11-13.48,3.68-21.91,5.59v-62Z" fill="#b7e7f8"/><path d="M938.72,666.19c.07-.96-.46-2.98.52-3.02,6.98,1.65,15.28,1.11,21.48,4.52v61.5h-22.01c-.05-.66.04-1.34,0-2v-61Z" fill="#b7e7f8"/><path d="M424.72,417.19c-.8.7-15.17,2.28-15.86,1.87-.09-.76-1.14-2.01-1.14-2.37v-72c0-5.72,12.91-5.99,17.42-6.52l.58,2.02-1,77Z" fill="#fbe8c6"/><path d="M949.72,496.19l.99,106.99c-5.16,1.03-10.79.91-12.75-4.67-1.14-35.96.81-71.7.97-107.61,1.16-3.95,7.01-2.51,10.21-2.72,1.15.16.5,2.09.59,3.02-1.66,1.04-1,3.79-1.02,5.49-.42,33.66.35,67.36.02,101.02l.99,3.48c-.51-34.96.72-70.04.01-104.99ZM947.72,489.2h-4.99v.98h4.99v-.98Z" fill="#fbe8c6"/><path d="M1071.73,425.19c.17,1.74-.01,3.34-.48,5.03-2.86,10.42-8.85,22.37-12.06,32.94l-11.45,22.03-16.01-57.99,40-2.01Z" fill="#d1a56f"/><path d="M371.73,331.19l26.48-52.99c1.71.68,16.7,25.65,18.69,29.32,1.14,2.11,5.5,8.91,4.4,10.68-2.34,3.75-42.63,12.48-49.57,12.99Z" fill="#fbe8c6"/><path d="M378.72,349.19c.1-.73-.53-1.82.65-2.04l16.35-2.97c.22,14.49-.28,29.04-.04,43.54.15,9.17,2.05,19.52,1.1,29.02-.28,2.82.09,3.84-2.82,5.18-2.37,1.1-13.62,2.91-15.24,1.26,1.7-.39.95-3.12,1-4.5.82-20.8.24-43.09.02-64.01-.02-1.69.64-4.45-1.02-5.49Z" fill="#fbe8c6"/><path d="M1013.72,675.19c.68-.68,17.24,2.87,18.77,3.68,1.07.57,2.23,2.96,2.23,3.82v51.5h-18.5c-.18,0-2.5-2.32-2.5-2.5v-56.5Z" fill="#b7e7f8"/><path d="M365.73,626.2c-.31.3-3.95-.31-5.34,0-.79.18-.77,1.9-1.17,2.01-2.24.58-2.86-2.26-5.56-2.6-.45-27.95.82-56.02.11-83.96-.1-4.08-2.79-8.83.62-12.53,5.96.2,10.25,1.03,11.28,7.63l.07,89.44Z" fill="#fbe8c6"/><path d="M162.72,797.19l-47.34,3.04c-8.13-22.08,17.79-29.42,34.87-28.08,3.58.28,12.46,1.84,12.46,6.54v18.5Z" fill="#d1a56f"/><path d="M272.72,583.19c-3.64.21-18.54,3.97-20.56,1.06s.5-17.32.6-21.52c.15-6.24-1.24-28.07,1.12-31.88.43-.69.53-1.23,1.47-1.53.73-.23,14.23-1.97,15.12-1.94.94.03,2.25.68,2.25,1.3v54.5Z" fill="#b7e7f8"/><path d="M18.72,871.19l13.1-51.9c.33-.29,8.45-.27,8.79.02.25.22,1.74,5.41,2.06,6.44,2.54,8.31,7.65,29.94,7.99,38.09.07,1.6-.96,7.35-2.43,7.35h-29.5Z" fill="#d1a56f"/><path d="M220.72,565.19c-.05-4.51-.7-29.16,1.19-30.81.73-.64,14.7-2.52,15.85-1.74,4.11,2.78,1.05,22.09.92,27.01s1.27,26.35-2.12,28.37c-1.27.76-4.32-.22-6.16.19-.8.17-.31,1.95-2.14,2.09-1.24.1-5.94-.5-6.4-1.26-1.18-1.94-1.05-14.66-1.14-17.85l.98-.5-.98-.5c-.03-1.33.02-2.67,0-4l.98-.5-.98-.5Z" fill="#b7e7f8"/><path d="M417.72,638.19v21l-64-6c.34-3.18-1.51-8.42,2.5-9.01l61.5-6Z" fill="#d1a56f"/><path d="M1048.72,682.19c5.17-1.74,10.77.85,15.88,2.13,1.92,17.19.87,34.58,1.13,51.88l-17.01-1.01v-53Z" fill="#b7e7f8"/><path d="M53.72,590.19c1.49,1.5-6.84,29.65-8.98,32.52-2.52,3.37-15.2,3.29-16.14,1.9-.84-1.25-7.43-26.63-7.7-29.21-.18-1.7.63-5.21,2.31-5.21h30.5Z" fill="#b7e7f8"/><path d="M302.72,522.19v58c-5.5.6-9.48,3.54-15.06.42l1.11-57.37,13.95-1.05Z" fill="#b7e7f8"/><path d="M438.72,419.19v-73l16.17,26.33c1.07,2.85,3.89,6.07,3.89,9.17,0,6.57-14.76,27.38-16.86,35.19l-3.19,2.31Z" fill="#fbe8c6"/><path d="M1079.72,736.19v-46.5c0-2.64,15.75-2.15,16.81,2.19-.78,12.82,1.71,28.38.25,40.86-.12,1.01-.46,3.45-1.55,3.45h-15.5Z" fill="#b7e7f8"/><path d="M1136.73,483.2c.21,1.64-.5,3.04-.97,4.53-2.38,7.63-12.04,31.75-15.84,38.16-.81,1.36-1.21,2.69-3.19,2.3l-10.01-44.99c10-.74,20.01-1.98,30.01,0Z" fill="#d1a56f"/><path d="M366.73,445.19l-1.5,51.01-19.53-46.43c-.02-1.3,19.8-5.8,21.04-4.58Z" fill="#fbe8c6"/><path d="M1000.22,751.19c-.77-.22-2.03-2.24-1.5-2.99,1.7-2.39,11.68-.04,14.45.03,12.55.31,25.03-.29,37.54.96.54,3.84-3.53,5.34-5.46,8.03s-.76,6.07-5.04,6.06c-3.87-.01-4.23-3.78-7.15-5.95-1.88-1.4-12.97-6.15-14.85-6.15-4,0-15.17.81-18,0Z" fill="#d1a56f"/><path d="M163.72,521.19c-.51-2.99,1.7-4.23,3.53-5.97,5.45-5.14,14.44-10.14,20.98-14.01-1.1,2.9-6.87,19.98-9.01,19.98h-15.5Z" fill="#d1a56f"/><path d="M516.72,482.19c-1.66,1.04-1,3.79-1.02,5.49-.48,38.82.4,77.7.02,116.51-.17-.8-.91-1.43-1.07-3.38-3.06-37.17,2.48-78.54.02-116.17.1-1.1.62-4.5,2.05-2.45Z" fill="#b4ada8"/><path d="M337.72,627.19l-1-100c.77.77,1.22,1.08,1.06,2.4-.5,32.52.48,65.1-.06,97.6Z" fill="#fbe8c6"/><path d="M674.72,564.19c.29-30.98-.22-62.02,0-93,.53,1.31.93,1.43,1.07,3.38,1.9,25.77.27,57.79-.05,84.13-.02,1.69.64,4.45-1.02,5.49Z" fill="#b4ada8"/><path d="M378.72,423.19v-73c-1.42,23.83,1.06,49.02,0,73Z" fill="#b4ada8"/><path d="M428.72,581.19v37c-1.37-.09-.92-1.48-1.04-2.45-.92-7.36-.76-26.59-.01-34.15.13-1.37-.01-1.47,1.06-2.4v2Z" fill="#b4ada8"/><path d="M779.72,748.19c-3.09-7.82.22-23.04-1-32,.03.19.9,1.01,1.05,2.4,1,9.21-.84,20.18-.05,29.6Z" fill="#b4ada8"/><path d="M1124.72,799.19c-.85,1.62-3.4.94-5,1,.51-.04,2.93-.84,5-1Z" fill="#fbe8c6"/><path d="M1094.72,801.19c-.85,1.62-3.4.94-5,1,.49-.03,2.92-.85,5-1Z" fill="#fbe8c6"/><path d="M1063.72,803.19c-.85,1.62-3.4.94-5,1,.51-.04,2.92-.85,5-1Z" fill="#fbe8c6"/><path d="M1147.72,797.19l-4,1c.21-.02,2.12-.83,4-1Z" fill="#fbe8c6"/><path d="M1108.72,800.19l-4,1c.21-.01,2-.86,4-1Z" fill="#fbe8c6"/><path d="M1079.72,802.19l-4,1c.21-.02,2.01-.86,4-1Z" fill="#fbe8c6"/><path d="M1046.72,804.19l-4,1c.21-.02,2.03-.85,4-1Z" fill="#fbe8c6"/><path d="M1033.72,805.19l-4,1c.21-.02,2.03-.85,4-1Z" fill="#fbe8c6"/><path d="M1136.72,798.19l-3,1c.16-.01.93-.83,3-1Z" fill="#fbe8c6"/><path d="M498.72,543.19c-1.5-.14-1.5-2.86,0-3-.03,1,.04,2,0,3Z" fill="#b4ada8"/><path d="M1157.72,796.19l-3,1c.16-.01.92-.84,3-1Z" fill="#fbe8c6"/><path d="M498.72,527.19c-1.5-.14-1.5-2.86,0-3,0,1,.01,2,0,3Z" fill="#b4ada8"/><path d="M1166.72,795.19c-.35.04-1.32.92-3,1l3-1Z" fill="#fbe8c6"/><path d="M497.72,553.19c-.78,1.26-1.14.7-2,1l2-1Z" fill="#b4ada8"/><path d="M220.72,566.19c0-.33,0-.67,0-1l.98.5-.98.5Z" fill="#b4ada8"/><path d="M220.72,571.19c0-.33,0-.67,0-1l.98.5-.98.5Z" fill="#b4ada8"/><path d="M753.46,868.35l141.47,21.14c3.84.37,12.03,3.09,11.59,8.05-.55,6.18-10.82,4.97-15.27,4.64-16.04-1.19-34.82-6.38-51.18-8.82-26.24-3.9-55.03-5.78-80.52-11.48-9.31-2.08-18.87-5.61-6.08-13.53Z" fill="#fbe8c6"/><path d="M434.88,898.36c1.19-.73,17.09,1.69,20.05,2.12,35.67,5.2,71.06,13.31,106.82,18.18,12,.65,18.11,13.47,2.5,13.54-40.14-9.74-86.26-10.42-125.78-20.27-4.66-1.16-6.33-3.03-5.74-8.15.09-.8,1.86-5.25,2.14-5.42Z" fill="#fbe8c6"/><path d="M973.99,858.94c-4.46-4.73.42-10.9,7.08-10.67,8.37.29,20.28,4.46,29.3,5.78,25.64,3.75,54.41,5.18,79.54,10.46,2.85.6,6.2.85,8.74,2.26,7.33,4.09,3.18,11.67-4.37,11.45-14.28-.42-33.42-5.77-48.19-7.88-18.69-2.67-38.2-4.21-56.69-7.31-3.42-.57-13.31-1.87-15.4-4.09Z" fill="#fbe8c6"/><path d="M772.72,530.19c1.11,2.11,2.19,4.22,3.02,6.48,5.16,13.96,3.8,55.48,3.02,72.07-.09,1.89-.48,3.67-1.04,5.45-.11.19-.7.69-1,1-2.41.89-3.66,1.81-6.43,2.07-12.23,1.15-30.44.35-43.12-.03-1.9-.06-3.79.09-5.45-1.04-1.09-1.82-1.7-1.55-2.03-4.46-1.73-15.14-1.24-48.47,0-64.07.85-10.79,8.95-25.15,19.8-28.2,10.41-2.93,19.9-1.51,28.25,5.23,1.25,1.01,4.62,5.44,4.99,5.51ZM736.86,598.05c.94,1.5,19.71,1.73,21.87.65s2.83-7.46,3.03-9.97c.67-8.78,1.18-30.83-.1-38.98-2.42-15.49-21.58-16.99-24.71-1.83-.85,4.13-1.18,16.73-1.27,21.73-.18,9.54.54,18.93,1.19,28.41Z" fill="#35322a"/><path d="M772.72,363.19c.99,3.54,3.29,6.69,4.3,10.2,3.72,12.93,2.52,53.68,1.7,68.8-.13,2.44.42,6.15-1.47,8.03s-28.82.85-34.07.93c-5.53.08-19.24,3.33-23.46-.96.71-19.3-.96-39.26.01-58.49.27-5.27.82-14.98,2.28-19.73.92-3.01,2.98-4.85,3.71-7.78,13.8-15.37,32.67-16.9,47-1ZM761.72,433.19v-50.5c0-9.08-14.2-17.95-21.44-8.44-.54.71-3.56,6.08-3.56,6.44v52.5h25Z" fill="#35322a"/><path d="M1010.72,504.19v86c-3.17,3.18-20.57-1.84-25.22-3.28-3.31-1.03-9.97-2.12-10.33-6.17,2.33-10.38-1.74-85.57,1.64-88.43.77-.65,4.63.04,5.97.33,4.44.99,20.21,6.55,24.53,8.47,1.61.71,2.41,1.75,3.41,3.09ZM987.72,511.19v55.5c0,.31,2.28,5.49,2.58,5.57,1.99.55,5.65-.4,6.16-2.7l.32-52.93c1.36-3.56-8.42-6.12-9.06-5.44Z" fill="#35322a"/><path d="M1085.72,526.19v81c-1.63.8-1.73,1.83-4.18,1.8-3.17-.04-23.07-4.53-24.84-6.28-2.41-2.37-.21-20.95-.97-25.53.59-20.62-.44-41.37,0-62,.72-.28,5.13-.75,6.03-.56,1.4.3,19.77,6.76,20.73,7.29,2.46,1.37,1.76,3.53,3.24,4.26ZM1072.64,593.1c2.44-1.62.39-51.47,1.09-58.41.13-2.79-4.57-3.12-6.43-2.56-2.98.91-.99,49.95-1.55,56.53.19,2.67,4.77,5.84,6.89,4.44Z" fill="#35322a"/><path d="M1143.72,558.19v2c0,18.15-.24,36.36-.02,54.51.02,1.69-.64,4.45,1.02,5.49v3c-2.8.96-7.83-1.54-10.99-1.01l-1.01-40.99v-1c1.67-1.54,1.68-6.42,0-8v-12c3.34-1.78,3.22-4.94,8.27-3.77.99.23,2.01,1.63,2.73,1.77Z" fill="#35322a"/><path d="M736.86,598.05c-.65-9.48-1.37-18.86-1.19-28.41.09-5,.42-17.6,1.27-21.73,3.13-15.16,22.29-13.66,24.71,1.83,1.27,8.14.77,30.19.1,38.98-.19,2.52-.83,8.88-3.03,9.97s-20.93.85-21.87-.65Z" fill="#b7e7f8"/><path d="M761.72,433.19h-25v-52.5c0-.37,3.02-5.73,3.56-6.44,7.24-9.51,21.44-.64,21.44,8.44v50.5Z" fill="#b7e7f8"/><path d="M987.72,511.19c.64-.67,10.42,1.88,9.06,5.44l-.32,52.93c-.5,2.29-4.16,3.25-6.16,2.7-.3-.08-2.58-5.26-2.58-5.57v-55.5Z" fill="#b7e7f8"/><path d="M1072.64,593.1c-2.11,1.4-6.69-1.76-6.89-4.44.56-6.58-1.44-55.62,1.55-56.53,1.86-.57,6.56-.24,6.43,2.56-.69,6.94,1.35,56.79-1.09,58.41Z" fill="#b7e7f8"/><path d="M1132.72,580.19c0-2.66,0-5.34,0-8,1.68,1.58,1.67,6.46,0,8Z" fill="#fbe8c6"/></svg>